# MagicaVoxel @ Ephtracy

# group
o 

# material
mtllib luisito.mtl
usemtl palette

# normals
vn -1 0 0
vn 1 0 0
vn 0 0 1
vn 0 0 -1
vn 0 -1 0
vn 0 1 0

# texcoords
vt 0.00976563 0.5
vt 0.349609 0.5
vt 0.373047 0.5
vt 0.876953 0.5
vt 0.958984 0.5

# verts
v 5.4 3.3 -6.1
v 5.4 3.3 -6.3
v 5.4 3.5 -6.1
v 5.4 3.5 -6.3
v 5.5 3.1 -6.1
v 5.5 3.1 -6.3
v 5.5 3.3 -6.1
v 5.5 3.3 -6.3
v 5.5 3.5 -6.1
v 5.5 3.5 -6.3
v 5.5 3.7 -6.1
v 5.5 3.7 -6.3
v 5.6 3.7 -6.1
v 5.6 3.7 -6.3
v 5.6 3.8 -6.1
v 5.6 3.8 -6.3
v 5.6 4 -6.1
v 5.6 4 -6.3
v 5.7 2.8 -6.1
v 5.7 2.8 -6.3
v 5.7 3.1 -6.1
v 5.7 3.1 -6.3
v 5.7 4 -6.1
v 5.7 4 -6.3
v 5.7 4.1 -6.1
v 5.7 4.1 -6.3
v 5.7 4.2 -6.1
v 5.7 4.2 -6.3
v 5.8 3.4 -6.1
v 5.8 3.4 -6.2
v 5.8 3.5 -6.1
v 5.8 3.5 -6.2
v 5.9 3.5 -6.1
v 5.9 3.5 -6.2
v 5.9 3.6 -6.1
v 5.9 3.6 -6.2
v 6 3.1 -6.1
v 6 3.1 -6.2
v 6 3.2 -6.1
v 6 3.2 -6.2
v 6 4.2 -6.1
v 6 4.2 -6.3
v 6 4.3 -6.1
v 6 4.3 -6.3
v 6.1 2.9 -6.1
v 6.1 2.9 -6.2
v 6.1 3.1 -6.1
v 6.1 3.1 -6.2
v 6.2 3.9 -6.1
v 6.2 3.9 -6.2
v 6.2 4 -6.1
v 6.2 4 -6.2
v 6.2 4.3 -6.1
v 6.2 4.3 -6.3
v 6.2 4.4 -6.1
v 6.2 4.4 -6.3
v 6.3 2 -6
v 6.3 2 -6.3
v 6.3 2.8 -6
v 6.3 2.8 -6.1
v 6.3 2.8 -6.3
v 6.4 2.8 -6.1
v 6.4 2.8 -6.3
v 6.4 2.9 -6.1
v 6.4 2.9 -6.3
v 6.4 4 -6.1
v 6.4 4 -6.2
v 6.4 4.1 -6.1
v 6.4 4.1 -6.2
v 6.5 4.1 -6.1
v 6.5 4.1 -6.2
v 6.5 4.2 -6.1
v 6.5 4.2 -6.2
v 7 2.7 -6
v 7 2.7 -6.1
v 7 2.7 -6.2
v 7 2.7 -6.3
v 7 2.9 -6
v 7 2.9 -6.1
v 7 2.9 -6.2
v 7 2.9 -6.3
v 5.7 3.4 -6.1
v 5.7 3.4 -6.2
v 5.7 3.5 -6.1
v 5.7 3.5 -6.2
v 5.8 3.1 -6.1
v 5.8 3.1 -6.2
v 5.8 3.2 -6.1
v 5.8 3.2 -6.2
v 5.8 3.5 -6.1
v 5.8 3.5 -6.2
v 5.8 3.6 -6.1
v 5.8 3.6 -6.2
v 5.9 3 -6.1
v 5.9 3 -6.2
v 5.9 3.1 -6.1
v 5.9 3.1 -6.2
v 6 2.9 -6.1
v 6 2.9 -6.2
v 6 3 -6.1
v 6 3 -6.2
v 6.1 3.9 -6.1
v 6.1 3.9 -6.2
v 6.1 4 -6.1
v 6.1 4 -6.2
v 6.3 2.8 -6.1
v 6.3 2.8 -6.3
v 6.3 2.9 -6.1
v 6.3 2.9 -6.3
v 6.3 4 -6.1
v 6.3 4 -6.2
v 6.3 4.1 -6.1
v 6.3 4.1 -6.2
v 6.4 4.1 -6.1
v 6.4 4.1 -6.2
v 6.4 4.2 -6.1
v 6.4 4.2 -6.2
v 6.6 2.8 -6.1
v 6.6 2.8 -6.3
v 6.6 3 -6.1
v 6.6 3 -6.3
v 6.6 4.3 -6.1
v 6.6 4.3 -6.3
v 6.6 4.4 -6.1
v 6.6 4.4 -6.3
v 6.7 2 -6
v 6.7 2 -6.3
v 6.7 2.5 -6
v 6.7 2.5 -6.3
v 6.7 3 -6.1
v 6.7 3 -6.3
v 6.7 3.2 -6.1
v 6.7 3.2 -6.3
v 6.7 3.3 -6.1
v 6.7 3.3 -6.3
v 6.7 3.5 -6.1
v 6.7 3.5 -6.3
v 6.7 3.6 -6.1
v 6.7 3.6 -6.3
v 6.7 3.7 -6.1
v 6.7 3.7 -6.3
v 6.7 3.8 -6.1
v 6.7 3.8 -6.3
v 6.7 3.9 -6.1
v 6.7 3.9 -6.3
v 6.7 4.1 -6.1
v 6.7 4.1 -6.3
v 6.7 4.3 -6.1
v 6.7 4.3 -6.3
v 6.8 2.5 -6
v 6.8 2.5 -6.3
v 6.8 2.6 -6
v 6.8 2.6 -6.1
v 6.8 2.6 -6.2
v 6.8 2.6 -6.3
v 6.8 2.7 -6
v 6.8 2.7 -6.1
v 6.8 2.7 -6.2
v 6.8 2.7 -6.3
v 6.8 2.8 -6
v 6.8 2.8 -6.3
v 6.8 3.3 -6.1
v 6.8 3.3 -6.3
v 6.8 3.4 -6.1
v 6.8 3.4 -6.3
v 6.8 3.9 -6.1
v 6.8 3.9 -6.3
v 6.8 4.1 -6.1
v 6.8 4.1 -6.3
v 6.9 3.4 -6.1
v 6.9 3.4 -6.3
v 6.9 3.5 -6.1
v 6.9 3.5 -6.3
v 7.1 2.8 -6
v 7.1 2.8 -6.1
v 7.1 2.8 -6.2
v 7.1 2.8 -6.3
v 7.1 2.9 -6
v 7.1 2.9 -6.1
v 7.1 2.9 -6.2
v 7.1 2.9 -6.3
v 7.2 2.6 -6
v 7.2 2.6 -6.1
v 7.2 2.6 -6.2
v 7.2 2.6 -6.3
v 7.2 2.8 -6
v 7.2 2.8 -6.1
v 7.2 2.8 -6.2
v 7.2 2.8 -6.3
v 6.3 2 -6
v 6.3 2.8 -6
v 6.7 2 -6
v 6.7 2.5 -6
v 6.8 2.5 -6
v 6.8 2.6 -6
v 6.8 2.7 -6
v 6.8 2.8 -6
v 7 2.7 -6
v 7 2.9 -6
v 7.1 2.8 -6
v 7.1 2.9 -6
v 7.2 2.6 -6
v 7.2 2.8 -6
v 5.4 3.3 -6.1
v 5.4 3.5 -6.1
v 5.5 3.1 -6.1
v 5.5 3.3 -6.1
v 5.5 3.5 -6.1
v 5.5 3.7 -6.1
v 5.6 3.7 -6.1
v 5.6 3.8 -6.1
v 5.6 4 -6.1
v 5.7 2.8 -6.1
v 5.7 3.1 -6.1
v 5.7 3.4 -6.1
v 5.7 3.5 -6.1
v 5.7 3.8 -6.1
v 5.7 3.9 -6.1
v 5.7 4 -6.1
v 5.7 4.1 -6.1
v 5.7 4.2 -6.1
v 5.8 3.1 -6.1
v 5.8 3.2 -6.1
v 5.8 3.4 -6.1
v 5.8 3.5 -6.1
v 5.8 3.6 -6.1
v 5.8 3.9 -6.1
v 5.8 4 -6.1
v 5.9 3 -6.1
v 5.9 3.1 -6.1
v 5.9 3.5 -6.1
v 5.9 3.6 -6.1
v 5.9 4 -6.1
v 5.9 4.1 -6.1
v 6 2.9 -6.1
v 6 3 -6.1
v 6 3.1 -6.1
v 6 3.2 -6.1
v 6 3.3 -6.1
v 6 3.5 -6.1
v 6 4.2 -6.1
v 6 4.3 -6.1
v 6.1 2.9 -6.1
v 6.1 3.1 -6.1
v 6.1 3.9 -6.1
v 6.1 4 -6.1
v 6.2 3 -6.1
v 6.2 3.3 -6.1
v 6.2 3.4 -6.1
v 6.2 3.5 -6.1
v 6.2 3.6 -6.1
v 6.2 3.8 -6.1
v 6.2 3.9 -6.1
v 6.2 4 -6.1
v 6.2 4.3 -6.1
v 6.2 4.4 -6.1
v 6.3 2.8 -6.1
v 6.3 2.9 -6.1
v 6.3 3.4 -6.1
v 6.3 3.6 -6.1
v 6.3 3.8 -6.1
v 6.3 3.9 -6.1
v 6.3 4 -6.1
v 6.3 4.1 -6.1
v 6.4 2.8 -6.1
v 6.4 2.9 -6.1
v 6.4 3 -6.1
v 6.4 4 -6.1
v 6.4 4.1 -6.1
v 6.4 4.2 -6.1
v 6.5 3.1 -6.1
v 6.5 3.2 -6.1
v 6.5 3.7 -6.1
v 6.5 3.8 -6.1
v 6.5 4.1 -6.1
v 6.5 4.2 -6.1
v 6.6 2.8 -6.1
v 6.6 3 -6.1
v 6.6 3.1 -6.1
v 6.6 3.2 -6.1
v 6.6 3.3 -6.1
v 6.6 3.5 -6.1
v 6.6 3.6 -6.1
v 6.6 4.3 -6.1
v 6.6 4.4 -6.1
v 6.7 3 -6.1
v 6.7 3.2 -6.1
v 6.7 3.3 -6.1
v 6.7 3.5 -6.1
v 6.7 3.6 -6.1
v 6.7 3.7 -6.1
v 6.7 3.8 -6.1
v 6.7 3.9 -6.1
v 6.7 4.1 -6.1
v 6.7 4.3 -6.1
v 6.8 3.3 -6.1
v 6.8 3.4 -6.1
v 6.8 3.9 -6.1
v 6.8 4.1 -6.1
v 6.9 3.4 -6.1
v 6.9 3.5 -6.1
v 5.7 3.4 -6.2
v 5.7 3.5 -6.2
v 5.8 3.1 -6.2
v 5.8 3.2 -6.2
v 5.8 3.4 -6.2
v 5.8 3.5 -6.2
v 5.8 3.6 -6.2
v 5.9 3 -6.2
v 5.9 3.1 -6.2
v 5.9 3.5 -6.2
v 5.9 3.6 -6.2
v 6 2.9 -6.2
v 6 3 -6.2
v 6 3.1 -6.2
v 6 3.2 -6.2
v 6.1 2.9 -6.2
v 6.1 3.1 -6.2
v 6.1 3.9 -6.2
v 6.1 4 -6.2
v 6.2 3.9 -6.2
v 6.2 4 -6.2
v 6.3 4 -6.2
v 6.3 4.1 -6.2
v 6.4 4 -6.2
v 6.4 4.1 -6.2
v 6.4 4.2 -6.2
v 6.5 4.1 -6.2
v 6.5 4.2 -6.2
v 6.8 2.6 -6.2
v 6.8 2.7 -6.2
v 7 2.7 -6.2
v 7 2.9 -6.2
v 7.1 2.8 -6.2
v 7.1 2.9 -6.2
v 7.2 2.6 -6.2
v 7.2 2.8 -6.2
v 6.8 2.6 -6.1
v 6.8 2.7 -6.1
v 7 2.7 -6.1
v 7 2.9 -6.1
v 7.1 2.8 -6.1
v 7.1 2.9 -6.1
v 7.2 2.6 -6.1
v 7.2 2.8 -6.1
v 5.4 3.3 -6.3
v 5.4 3.5 -6.3
v 5.5 3.1 -6.3
v 5.5 3.3 -6.3
v 5.5 3.5 -6.3
v 5.5 3.7 -6.3
v 5.6 3.7 -6.3
v 5.6 3.8 -6.3
v 5.6 4 -6.3
v 5.7 2.8 -6.3
v 5.7 3.1 -6.3
v 5.7 3.4 -6.3
v 5.7 3.5 -6.3
v 5.7 3.8 -6.3
v 5.7 3.9 -6.3
v 5.7 4 -6.3
v 5.7 4.1 -6.3
v 5.7 4.2 -6.3
v 5.8 3.1 -6.3
v 5.8 3.2 -6.3
v 5.8 3.4 -6.3
v 5.8 3.5 -6.3
v 5.8 3.6 -6.3
v 5.8 3.9 -6.3
v 5.8 4 -6.3
v 5.9 3 -6.3
v 5.9 3.1 -6.3
v 5.9 3.5 -6.3
v 5.9 3.6 -6.3
v 5.9 4 -6.3
v 5.9 4.1 -6.3
v 6 2.9 -6.3
v 6 3 -6.3
v 6 3.1 -6.3
v 6 3.2 -6.3
v 6 3.3 -6.3
v 6 3.5 -6.3
v 6 4.2 -6.3
v 6 4.3 -6.3
v 6.1 2.9 -6.3
v 6.1 3.1 -6.3
v 6.1 3.9 -6.3
v 6.1 4 -6.3
v 6.2 3 -6.3
v 6.2 3.3 -6.3
v 6.2 3.4 -6.3
v 6.2 3.5 -6.3
v 6.2 3.6 -6.3
v 6.2 3.8 -6.3
v 6.2 3.9 -6.3
v 6.2 4 -6.3
v 6.2 4.3 -6.3
v 6.2 4.4 -6.3
v 6.3 2 -6.3
v 6.3 2.8 -6.3
v 6.3 2.9 -6.3
v 6.3 3.4 -6.3
v 6.3 3.6 -6.3
v 6.3 3.8 -6.3
v 6.3 3.9 -6.3
v 6.3 4 -6.3
v 6.3 4.1 -6.3
v 6.4 2.8 -6.3
v 6.4 2.9 -6.3
v 6.4 3 -6.3
v 6.4 4 -6.3
v 6.4 4.1 -6.3
v 6.4 4.2 -6.3
v 6.5 3.1 -6.3
v 6.5 3.2 -6.3
v 6.5 3.7 -6.3
v 6.5 3.8 -6.3
v 6.5 4.1 -6.3
v 6.5 4.2 -6.3
v 6.6 2.8 -6.3
v 6.6 3 -6.3
v 6.6 3.1 -6.3
v 6.6 3.2 -6.3
v 6.6 3.3 -6.3
v 6.6 3.5 -6.3
v 6.6 3.6 -6.3
v 6.6 4.3 -6.3
v 6.6 4.4 -6.3
v 6.7 2 -6.3
v 6.7 2.5 -6.3
v 6.7 3 -6.3
v 6.7 3.2 -6.3
v 6.7 3.3 -6.3
v 6.7 3.5 -6.3
v 6.7 3.6 -6.3
v 6.7 3.7 -6.3
v 6.7 3.8 -6.3
v 6.7 3.9 -6.3
v 6.7 4.1 -6.3
v 6.7 4.3 -6.3
v 6.8 2.5 -6.3
v 6.8 2.6 -6.3
v 6.8 2.7 -6.3
v 6.8 2.8 -6.3
v 6.8 3.3 -6.3
v 6.8 3.4 -6.3
v 6.8 3.9 -6.3
v 6.8 4.1 -6.3
v 6.9 3.4 -6.3
v 6.9 3.5 -6.3
v 7 2.7 -6.3
v 7 2.9 -6.3
v 7.1 2.8 -6.3
v 7.1 2.9 -6.3
v 7.2 2.6 -6.3
v 7.2 2.8 -6.3
v 6.3 2 -6
v 6.7 2 -6
v 6.3 2 -6.3
v 6.7 2 -6.3
v 6.7 2.5 -6
v 6.8 2.5 -6
v 6.7 2.5 -6.3
v 6.8 2.5 -6.3
v 6.8 2.6 -6
v 7.2 2.6 -6
v 6.8 2.6 -6.1
v 7.2 2.6 -6.1
v 6.8 2.6 -6.2
v 7.2 2.6 -6.2
v 6.8 2.6 -6.3
v 7.2 2.6 -6.3
v 5.7 2.8 -6.1
v 6.3 2.8 -6.1
v 5.7 2.8 -6.3
v 6.3 2.8 -6.3
v 6.3 2.9 -6.1
v 6.4 2.9 -6.1
v 6.3 2.9 -6.3
v 6.4 2.9 -6.3
v 6.6 3 -6.1
v 6.7 3 -6.1
v 6.6 3 -6.3
v 6.7 3 -6.3
v 5.5 3.1 -6.1
v 5.7 3.1 -6.1
v 6 3.1 -6.1
v 6.1 3.1 -6.1
v 6 3.1 -6.2
v 6.1 3.1 -6.2
v 5.5 3.1 -6.3
v 5.7 3.1 -6.3
v 5.8 3.2 -6.1
v 6 3.2 -6.1
v 5.8 3.2 -6.2
v 6 3.2 -6.2
v 5.4 3.3 -6.1
v 5.5 3.3 -6.1
v 6.7 3.3 -6.1
v 6.8 3.3 -6.1
v 5.4 3.3 -6.3
v 5.5 3.3 -6.3
v 6.7 3.3 -6.3
v 6.8 3.3 -6.3
v 6.8 3.4 -6.1
v 6.9 3.4 -6.1
v 6.8 3.4 -6.3
v 6.9 3.4 -6.3
v 5.7 3.5 -6.1
v 5.8 3.5 -6.1
v 5.7 3.5 -6.2
v 5.8 3.5 -6.2
v 5.8 3.6 -6.1
v 5.9 3.6 -6.1
v 5.8 3.6 -6.2
v 5.9 3.6 -6.2
v 6.7 3.9 -6.1
v 6.8 3.9 -6.1
v 6.7 3.9 -6.3
v 6.8 3.9 -6.3
v 6.1 4 -6.1
v 6.2 4 -6.1
v 6.1 4 -6.2
v 6.2 4 -6.2
v 6.3 4.1 -6.1
v 6.4 4.1 -6.1
v 6.3 4.1 -6.2
v 6.4 4.1 -6.2
v 6.4 4.2 -6.1
v 6.5 4.2 -6.1
v 6.4 4.2 -6.2
v 6.5 4.2 -6.2
v 6.8 2.7 -6
v 7 2.7 -6
v 6.8 2.7 -6.1
v 7 2.7 -6.1
v 6.8 2.7 -6.2
v 7 2.7 -6.2
v 6.8 2.7 -6.3
v 7 2.7 -6.3
v 6.3 2.8 -6
v 6.8 2.8 -6
v 7.1 2.8 -6
v 7.2 2.8 -6
v 6.3 2.8 -6.1
v 6.4 2.8 -6.1
v 6.6 2.8 -6.1
v 7.1 2.8 -6.1
v 7.2 2.8 -6.1
v 7.1 2.8 -6.2
v 7.2 2.8 -6.2
v 6.3 2.8 -6.3
v 6.4 2.8 -6.3
v 6.6 2.8 -6.3
v 6.8 2.8 -6.3
v 7.1 2.8 -6.3
v 7.2 2.8 -6.3
v 7 2.9 -6
v 7.1 2.9 -6
v 6 2.9 -6.1
v 6.1 2.9 -6.1
v 7 2.9 -6.1
v 7.1 2.9 -6.1
v 6 2.9 -6.2
v 6.1 2.9 -6.2
v 7 2.9 -6.2
v 7.1 2.9 -6.2
v 7 2.9 -6.3
v 7.1 2.9 -6.3
v 5.9 3 -6.1
v 6 3 -6.1
v 5.9 3 -6.2
v 6 3 -6.2
v 5.8 3.1 -6.1
v 5.9 3.1 -6.1
v 5.8 3.1 -6.2
v 5.9 3.1 -6.2
v 5.7 3.4 -6.1
v 5.8 3.4 -6.1
v 5.7 3.4 -6.2
v 5.8 3.4 -6.2
v 5.4 3.5 -6.1
v 5.5 3.5 -6.1
v 5.8 3.5 -6.1
v 5.9 3.5 -6.1
v 6.7 3.5 -6.1
v 6.9 3.5 -6.1
v 5.8 3.5 -6.2
v 5.9 3.5 -6.2
v 5.4 3.5 -6.3
v 5.5 3.5 -6.3
v 6.7 3.5 -6.3
v 6.9 3.5 -6.3
v 5.5 3.7 -6.1
v 5.6 3.7 -6.1
v 5.5 3.7 -6.3
v 5.6 3.7 -6.3
v 6.1 3.9 -6.1
v 6.2 3.9 -6.1
v 6.1 3.9 -6.2
v 6.2 3.9 -6.2
v 5.6 4 -6.1
v 5.7 4 -6.1
v 6.3 4 -6.1
v 6.4 4 -6.1
v 6.3 4 -6.2
v 6.4 4 -6.2
v 5.6 4 -6.3
v 5.7 4 -6.3
v 6.4 4.1 -6.1
v 6.5 4.1 -6.1
v 6.7 4.1 -6.1
v 6.8 4.1 -6.1
v 6.4 4.1 -6.2
v 6.5 4.1 -6.2
v 6.7 4.1 -6.3
v 6.8 4.1 -6.3
v 5.7 4.2 -6.1
v 6 4.2 -6.1
v 5.7 4.2 -6.3
v 6 4.2 -6.3
v 6 4.3 -6.1
v 6.2 4.3 -6.1
v 6.6 4.3 -6.1
v 6.7 4.3 -6.1
v 6 4.3 -6.3
v 6.2 4.3 -6.3
v 6.6 4.3 -6.3
v 6.7 4.3 -6.3
v 6.2 4.4 -6.1
v 6.6 4.4 -6.1
v 6.2 4.4 -6.3
v 6.6 4.4 -6.3

# faces
f 3/3/1 2/3/1 1/3/1
f 4/3/1 2/3/1 3/3/1
f 7/3/1 6/3/1 5/3/1
f 8/3/1 6/3/1 7/3/1
f 11/3/1 10/3/1 9/3/1
f 12/3/1 10/3/1 11/3/1
f 15/3/1 14/3/1 13/3/1
f 16/3/1 14/3/1 15/3/1
f 17/2/1 16/2/1 15/2/1
f 18/2/1 16/2/1 17/2/1
f 21/3/1 20/3/1 19/3/1
f 22/3/1 20/3/1 21/3/1
f 25/2/1 24/2/1 23/2/1
f 26/2/1 24/2/1 25/2/1
f 27/3/1 26/3/1 25/3/1
f 28/3/1 26/3/1 27/3/1
f 31/3/1 30/3/1 29/3/1
f 32/3/1 30/3/1 31/3/1
f 35/3/1 34/3/1 33/3/1
f 36/3/1 34/3/1 35/3/1
f 39/3/1 38/3/1 37/3/1
f 40/3/1 38/3/1 39/3/1
f 43/3/1 42/3/1 41/3/1
f 44/3/1 42/3/1 43/3/1
f 47/3/1 46/3/1 45/3/1
f 48/3/1 46/3/1 47/3/1
f 51/3/1 50/3/1 49/3/1
f 52/3/1 50/3/1 51/3/1
f 55/3/1 54/3/1 53/3/1
f 56/3/1 54/3/1 55/3/1
f 59/5/1 58/5/1 57/5/1
f 60/5/1 58/5/1 59/5/1
f 61/5/1 58/5/1 60/5/1
f 64/1/1 63/1/1 62/1/1
f 65/1/1 63/1/1 64/1/1
f 68/3/1 67/3/1 66/3/1
f 69/3/1 67/3/1 68/3/1
f 72/3/1 71/3/1 70/3/1
f 73/3/1 71/3/1 72/3/1
f 78/1/1 75/1/1 74/1/1
f 79/1/1 75/1/1 78/1/1
f 80/1/1 77/1/1 76/1/1
f 81/1/1 77/1/1 80/1/1
f 82/3/2 83/3/2 84/3/2
f 84/3/2 83/3/2 85/3/2
f 86/3/2 87/3/2 88/3/2
f 88/3/2 87/3/2 89/3/2
f 90/3/2 91/3/2 92/3/2
f 92/3/2 91/3/2 93/3/2
f 94/3/2 95/3/2 96/3/2
f 96/3/2 95/3/2 97/3/2
f 98/3/2 99/3/2 100/3/2
f 100/3/2 99/3/2 101/3/2
f 102/3/2 103/3/2 104/3/2
f 104/3/2 103/3/2 105/3/2
f 106/3/2 107/3/2 108/3/2
f 108/3/2 107/3/2 109/3/2
f 110/3/2 111/3/2 112/3/2
f 112/3/2 111/3/2 113/3/2
f 114/3/2 115/3/2 116/3/2
f 116/3/2 115/3/2 117/3/2
f 118/1/2 119/1/2 120/1/2
f 120/1/2 119/1/2 121/1/2
f 122/3/2 123/3/2 124/3/2
f 124/3/2 123/3/2 125/3/2
f 126/5/2 127/5/2 128/5/2
f 128/5/2 127/5/2 129/5/2
f 130/1/2 131/1/2 132/1/2
f 132/1/2 131/1/2 133/1/2
f 132/3/2 133/3/2 134/3/2
f 134/3/2 133/3/2 135/3/2
f 136/4/2 137/4/2 138/4/2
f 138/4/2 137/4/2 139/4/2
f 138/1/2 139/1/2 140/1/2
f 140/1/2 139/1/2 141/1/2
f 140/3/2 141/3/2 142/3/2
f 142/3/2 141/3/2 143/3/2
f 142/1/2 143/1/2 144/1/2
f 144/1/2 143/1/2 145/1/2
f 146/3/2 147/3/2 148/3/2
f 148/3/2 147/3/2 149/3/2
f 150/5/2 151/5/2 152/5/2
f 152/5/2 151/5/2 153/5/2
f 153/5/2 151/5/2 154/5/2
f 154/5/2 151/5/2 155/5/2
f 153/5/2 154/5/2 157/5/2
f 157/5/2 154/5/2 158/5/2
f 156/5/2 157/5/2 160/5/2
f 158/5/2 159/5/2 160/5/2
f 157/5/2 158/5/2 160/5/2
f 160/5/2 159/5/2 161/5/2
f 162/1/2 163/1/2 164/1/2
f 164/1/2 163/1/2 165/1/2
f 166/3/2 167/3/2 168/3/2
f 168/3/2 167/3/2 169/3/2
f 170/1/2 171/1/2 172/1/2
f 172/1/2 171/1/2 173/1/2
f 174/1/2 175/1/2 178/1/2
f 178/1/2 175/1/2 179/1/2
f 176/1/2 177/1/2 180/1/2
f 180/1/2 177/1/2 181/1/2
f 182/1/2 183/1/2 186/1/2
f 186/1/2 183/1/2 187/1/2
f 184/1/2 185/1/2 188/1/2
f 188/1/2 185/1/2 189/1/2
f 192/5/3 191/5/3 190/5/3
f 193/5/3 191/5/3 192/5/3
f 194/5/3 191/5/3 193/5/3
f 195/5/3 191/5/3 194/5/3
f 196/5/3 191/5/3 195/5/3
f 197/5/3 191/5/3 196/5/3
f 198/1/3 196/1/3 195/1/3
f 200/1/3 199/1/3 198/1/3
f 201/1/3 199/1/3 200/1/3
f 202/1/3 198/1/3 195/1/3
f 202/1/3 200/1/3 198/1/3
f 203/1/3 200/1/3 202/1/3
f 207/3/3 205/3/3 204/3/3
f 208/3/3 205/3/3 207/3/3
f 210/3/3 207/3/3 206/3/3
f 210/3/3 209/3/3 208/3/3
f 210/3/3 208/3/3 207/3/3
f 214/3/3 210/3/3 206/3/3
f 214/3/3 211/3/3 210/3/3
f 215/3/3 211/3/3 214/3/3
f 216/3/3 211/3/3 215/3/3
f 217/2/3 212/2/3 211/2/3
f 217/3/3 211/3/3 216/3/3
f 218/2/3 212/2/3 217/2/3
f 219/2/3 212/2/3 218/2/3
f 222/3/3 214/3/3 213/3/3
f 222/3/3 215/3/3 214/3/3
f 223/3/3 215/3/3 222/3/3
f 224/3/3 215/3/3 223/3/3
f 225/3/3 217/3/3 216/3/3
f 225/3/3 218/3/3 217/3/3
f 226/3/3 218/3/3 225/3/3
f 227/2/3 220/2/3 219/2/3
f 227/3/3 218/3/3 226/3/3
f 227/2/3 219/2/3 218/2/3
f 228/2/3 220/2/3 227/2/3
f 229/3/3 222/3/3 213/3/3
f 230/3/3 222/3/3 229/3/3
f 231/3/3 225/3/3 224/3/3
f 231/3/3 224/3/3 223/3/3
f 232/3/3 228/3/3 227/3/3
f 232/3/3 227/3/3 226/3/3
f 233/2/3 220/2/3 228/2/3
f 233/3/3 228/3/3 232/3/3
f 234/3/3 221/3/3 220/3/3
f 234/2/3 220/2/3 233/2/3
f 235/3/3 229/3/3 213/3/3
f 236/3/3 229/3/3 235/3/3
f 238/3/3 233/3/3 232/3/3
f 238/3/3 232/3/3 231/3/3
f 238/3/3 234/3/3 233/3/3
f 238/3/3 231/3/3 223/3/3
f 239/3/3 234/3/3 238/3/3
f 240/3/3 234/3/3 239/3/3
f 241/3/3 221/3/3 234/3/3
f 241/3/3 234/3/3 240/3/3
f 243/3/3 235/3/3 213/3/3
f 244/3/3 238/3/3 237/3/3
f 244/3/3 239/3/3 238/3/3
f 245/3/3 242/3/3 241/3/3
f 245/3/3 241/3/3 240/3/3
f 246/3/3 242/3/3 245/3/3
f 247/3/3 244/3/3 243/3/3
f 248/3/3 239/3/3 244/3/3
f 248/3/3 244/3/3 247/3/3
f 248/1/3 240/1/3 239/1/3
f 249/1/3 240/1/3 248/1/3
f 250/3/3 245/3/3 240/3/3
f 250/1/3 240/1/3 249/1/3
f 251/3/3 245/3/3 250/3/3
f 252/3/3 245/3/3 251/3/3
f 253/3/3 245/3/3 252/3/3
f 254/3/3 242/3/3 246/3/3
f 255/3/3 242/3/3 254/3/3
f 257/3/3 247/3/3 243/3/3
f 257/3/3 243/3/3 213/3/3
f 258/3/3 247/3/3 257/3/3
f 259/1/3 249/1/3 248/1/3
f 259/1/3 248/1/3 247/1/3
f 259/3/3 250/3/3 249/3/3
f 259/3/3 251/3/3 250/3/3
f 260/1/3 252/1/3 251/1/3
f 260/3/3 251/3/3 259/3/3
f 261/3/3 253/3/3 252/3/3
f 261/1/3 252/1/3 260/1/3
f 261/3/3 256/3/3 255/3/3
f 261/3/3 255/3/3 254/3/3
f 261/3/3 254/3/3 253/3/3
f 262/3/3 256/3/3 261/3/3
f 263/3/3 256/3/3 262/3/3
f 264/3/3 256/3/3 263/3/3
f 266/3/3 247/3/3 258/3/3
f 267/1/3 260/1/3 259/1/3
f 267/1/3 259/1/3 247/1/3
f 267/3/3 247/3/3 266/3/3
f 267/1/3 261/1/3 260/1/3
f 267/1/3 262/1/3 261/1/3
f 268/3/3 263/3/3 262/3/3
f 269/3/3 256/3/3 264/3/3
f 270/3/3 256/3/3 269/3/3
f 271/1/3 266/1/3 265/1/3
f 271/1/3 262/1/3 267/1/3
f 271/1/3 267/1/3 266/1/3
f 272/1/3 262/1/3 271/1/3
f 273/1/3 262/1/3 272/1/3
f 274/1/3 262/1/3 273/1/3
f 275/3/3 269/3/3 268/3/3
f 276/3/3 256/3/3 270/3/3
f 277/1/3 271/1/3 265/1/3
f 278/1/3 271/1/3 277/1/3
f 279/3/3 272/3/3 271/3/3
f 279/1/3 271/1/3 278/1/3
f 280/1/3 273/1/3 272/1/3
f 280/3/3 272/3/3 279/3/3
f 281/1/3 273/1/3 280/1/3
f 282/1/3 273/1/3 281/1/3
f 283/1/3 273/1/3 282/1/3
f 284/3/3 276/3/3 275/3/3
f 284/3/3 256/3/3 276/3/3
f 285/3/3 256/3/3 284/3/3
f 286/1/3 279/1/3 278/1/3
f 286/1/3 280/1/3 279/1/3
f 287/3/3 281/3/3 280/3/3
f 287/1/3 280/1/3 286/1/3
f 288/1/3 282/1/3 281/1/3
f 288/3/3 281/3/3 287/3/3
f 289/4/3 283/4/3 282/4/3
f 289/1/3 282/1/3 288/1/3
f 290/1/3 273/1/3 283/1/3
f 290/4/3 283/4/3 289/4/3
f 291/3/3 274/3/3 273/3/3
f 291/1/3 273/1/3 290/1/3
f 292/1/3 262/1/3 274/1/3
f 292/3/3 274/3/3 291/3/3
f 293/3/3 275/3/3 268/3/3
f 293/1/3 262/1/3 292/1/3
f 293/3/3 268/3/3 262/3/3
f 293/3/3 284/3/3 275/3/3
f 294/3/3 284/3/3 293/3/3
f 295/3/3 284/3/3 294/3/3
f 296/1/3 289/1/3 288/1/3
f 297/1/3 289/1/3 296/1/3
f 298/3/3 294/3/3 293/3/3
f 299/3/3 294/3/3 298/3/3
f 300/1/3 289/1/3 297/1/3
f 301/1/3 289/1/3 300/1/3
f 306/2/3 303/2/3 302/2/3
f 307/2/3 303/2/3 306/2/3
f 310/2/3 305/2/3 304/2/3
f 311/2/3 308/2/3 307/2/3
f 312/2/3 308/2/3 311/2/3
f 314/2/3 310/2/3 309/2/3
f 315/2/3 305/2/3 310/2/3
f 315/2/3 310/2/3 314/2/3
f 316/2/3 305/2/3 315/2/3
f 317/2/3 314/2/3 313/2/3
f 317/2/3 315/2/3 314/2/3
f 318/2/3 315/2/3 317/2/3
f 321/2/3 320/2/3 319/2/3
f 322/2/3 320/2/3 321/2/3
f 325/2/3 324/2/3 323/2/3
f 326/2/3 324/2/3 325/2/3
f 328/2/3 327/2/3 326/2/3
f 329/2/3 327/2/3 328/2/3
f 332/1/3 331/1/3 330/1/3
f 334/1/3 333/1/3 332/1/3
f 335/1/3 333/1/3 334/1/3
f 336/1/3 332/1/3 330/1/3
f 336/1/3 334/1/3 332/1/3
f 337/1/3 334/1/3 336/1/3
f 338/1/4 339/1/4 340/1/4
f 340/1/4 341/1/4 342/1/4
f 342/1/4 341/1/4 343/1/4
f 338/1/4 340/1/4 344/1/4
f 340/1/4 342/1/4 344/1/4
f 344/1/4 342/1/4 345/1/4
f 346/3/4 347/3/4 349/3/4
f 349/3/4 347/3/4 350/3/4
f 348/3/4 349/3/4 352/3/4
f 350/3/4 351/3/4 352/3/4
f 349/3/4 350/3/4 352/3/4
f 348/3/4 352/3/4 356/3/4
f 352/3/4 353/3/4 356/3/4
f 356/3/4 353/3/4 357/3/4
f 357/3/4 353/3/4 358/3/4
f 353/2/4 354/2/4 359/2/4
f 358/3/4 353/3/4 359/3/4
f 359/2/4 354/2/4 360/2/4
f 360/2/4 354/2/4 361/2/4
f 355/3/4 356/3/4 364/3/4
f 356/3/4 357/3/4 364/3/4
f 364/3/4 357/3/4 365/3/4
f 357/2/4 358/2/4 366/2/4
f 365/3/4 357/3/4 366/3/4
f 358/3/4 359/3/4 367/3/4
f 366/2/4 358/2/4 367/2/4
f 359/3/4 360/3/4 367/3/4
f 367/3/4 360/3/4 368/3/4
f 361/2/4 362/2/4 369/2/4
f 368/3/4 360/3/4 369/3/4
f 360/2/4 361/2/4 369/2/4
f 369/2/4 362/2/4 370/2/4
f 355/3/4 364/3/4 371/3/4
f 364/2/4 365/2/4 372/2/4
f 371/3/4 364/3/4 372/3/4
f 367/2/4 368/2/4 373/2/4
f 365/3/4 366/3/4 373/3/4
f 366/3/4 367/3/4 373/3/4
f 369/3/4 370/3/4 374/3/4
f 373/2/4 368/2/4 374/2/4
f 368/3/4 369/3/4 374/3/4
f 370/2/4 362/2/4 375/2/4
f 374/3/4 370/3/4 375/3/4
f 362/3/4 363/3/4 376/3/4
f 375/2/4 362/2/4 376/2/4
f 355/3/4 371/3/4 377/3/4
f 371/2/4 372/2/4 378/2/4
f 377/3/4 371/3/4 378/3/4
f 372/2/4 365/2/4 379/2/4
f 378/2/4 372/2/4 379/2/4
f 374/3/4 375/3/4 380/3/4
f 379/2/4 365/2/4 380/2/4
f 373/3/4 374/3/4 380/3/4
f 375/3/4 376/3/4 380/3/4
f 365/3/4 373/3/4 380/3/4
f 380/3/4 376/3/4 381/3/4
f 381/3/4 376/3/4 382/3/4
f 376/3/4 363/3/4 383/3/4
f 382/3/4 376/3/4 383/3/4
f 378/2/4 379/2/4 385/2/4
f 377/2/4 378/2/4 385/2/4
f 355/3/4 377/3/4 385/3/4
f 380/3/4 381/3/4 386/3/4
f 385/2/4 379/2/4 386/2/4
f 379/3/4 380/3/4 386/3/4
f 383/3/4 384/3/4 387/3/4
f 382/3/4 383/3/4 387/3/4
f 387/3/4 384/3/4 388/3/4
f 385/3/4 386/3/4 389/3/4
f 381/1/4 382/1/4 390/1/4
f 389/3/4 386/3/4 390/3/4
f 386/3/4 381/3/4 390/3/4
f 390/1/4 382/1/4 391/1/4
f 382/3/4 387/3/4 392/3/4
f 391/1/4 382/1/4 392/1/4
f 392/3/4 387/3/4 393/3/4
f 393/3/4 387/3/4 394/3/4
f 387/2/4 388/2/4 395/2/4
f 394/3/4 387/3/4 395/3/4
f 388/3/4 384/3/4 396/3/4
f 395/2/4 388/2/4 396/2/4
f 396/3/4 384/3/4 397/3/4
f 385/3/4 389/3/4 400/3/4
f 355/3/4 385/3/4 400/3/4
f 400/3/4 389/3/4 401/3/4
f 390/1/4 391/1/4 402/1/4
f 389/1/4 390/1/4 402/1/4
f 391/3/4 392/3/4 402/3/4
f 392/3/4 393/3/4 402/3/4
f 393/1/4 394/1/4 403/1/4
f 402/3/4 393/3/4 403/3/4
f 397/3/4 398/3/4 404/3/4
f 403/1/4 394/1/4 404/1/4
f 394/3/4 395/3/4 404/3/4
f 395/3/4 396/3/4 404/3/4
f 396/3/4 397/3/4 404/3/4
f 404/3/4 398/3/4 405/3/4
f 405/3/4 398/3/4 406/3/4
f 406/3/4 398/3/4 407/3/4
f 399/5/4 400/5/4 408/5/4
f 401/3/4 389/3/4 409/3/4
f 402/1/4 403/1/4 410/1/4
f 389/1/4 402/1/4 410/1/4
f 409/3/4 389/3/4 410/3/4
f 403/1/4 404/1/4 410/1/4
f 404/1/4 405/1/4 410/1/4
f 406/2/4 407/2/4 411/2/4
f 405/3/4 406/3/4 411/3/4
f 407/3/4 398/3/4 412/3/4
f 411/2/4 407/2/4 412/2/4
f 412/3/4 398/3/4 413/3/4
f 408/1/4 409/1/4 414/1/4
f 410/1/4 405/1/4 414/1/4
f 409/1/4 410/1/4 414/1/4
f 414/1/4 405/1/4 415/1/4
f 415/1/4 405/1/4 416/1/4
f 416/1/4 405/1/4 417/1/4
f 412/2/4 413/2/4 418/2/4
f 411/3/4 412/3/4 418/3/4
f 413/3/4 398/3/4 419/3/4
f 418/2/4 413/2/4 419/2/4
f 399/5/4 408/5/4 420/5/4
f 408/1/4 414/1/4 420/1/4
f 420/1/4 414/1/4 421/1/4
f 414/3/4 415/3/4 422/3/4
f 421/1/4 414/1/4 422/1/4
f 415/1/4 416/1/4 423/1/4
f 422/3/4 415/3/4 423/3/4
f 423/1/4 416/1/4 424/1/4
f 424/1/4 416/1/4 425/1/4
f 425/1/4 416/1/4 426/1/4
f 419/3/4 398/3/4 427/3/4
f 418/3/4 419/3/4 427/3/4
f 427/3/4 398/3/4 428/3/4
f 399/5/4 420/5/4 429/5/4
f 429/5/4 420/5/4 430/5/4
f 421/1/4 422/1/4 431/1/4
f 422/1/4 423/1/4 431/1/4
f 423/3/4 424/3/4 432/3/4
f 431/1/4 423/1/4 432/1/4
f 424/1/4 425/1/4 433/1/4
f 432/3/4 424/3/4 433/3/4
f 425/4/4 426/4/4 434/4/4
f 433/1/4 425/1/4 434/1/4
f 426/1/4 416/1/4 435/1/4
f 434/4/4 426/4/4 435/4/4
f 416/3/4 417/3/4 436/3/4
f 435/1/4 416/1/4 436/1/4
f 417/1/4 405/1/4 437/1/4
f 436/3/4 417/3/4 437/3/4
f 411/3/4 418/3/4 438/3/4
f 437/1/4 405/1/4 438/1/4
f 405/3/4 411/3/4 438/3/4
f 418/3/4 427/3/4 438/3/4
f 438/3/4 427/3/4 439/3/4
f 439/3/4 427/3/4 440/3/4
f 430/5/4 420/5/4 441/5/4
f 441/5/4 420/5/4 442/5/4
f 442/5/4 420/5/4 443/5/4
f 443/5/4 420/5/4 444/5/4
f 433/1/4 434/1/4 445/1/4
f 445/1/4 434/1/4 446/1/4
f 438/3/4 439/3/4 447/3/4
f 447/3/4 439/3/4 448/3/4
f 446/1/4 434/1/4 449/1/4
f 449/1/4 434/1/4 450/1/4
f 442/1/4 443/1/4 451/1/4
f 451/1/4 452/1/4 453/1/4
f 453/1/4 452/1/4 454/1/4
f 442/1/4 451/1/4 455/1/4
f 451/1/4 453/1/4 455/1/4
f 455/1/4 453/1/4 456/1/4
f 459/5/5 458/5/5 457/5/5
f 460/5/5 458/5/5 459/5/5
f 463/5/5 462/5/5 461/5/5
f 464/5/5 462/5/5 463/5/5
f 467/1/5 466/1/5 465/1/5
f 468/1/5 466/1/5 467/1/5
f 471/1/5 470/1/5 469/1/5
f 472/1/5 470/1/5 471/1/5
f 475/3/5 474/3/5 473/3/5
f 476/3/5 474/3/5 475/3/5
f 479/3/5 478/3/5 477/3/5
f 480/3/5 478/3/5 479/3/5
f 483/1/5 482/1/5 481/1/5
f 484/1/5 482/1/5 483/1/5
f 489/3/5 488/3/5 487/3/5
f 490/3/5 488/3/5 489/3/5
f 491/3/5 486/3/5 485/3/5
f 492/3/5 486/3/5 491/3/5
f 495/3/5 494/3/5 493/3/5
f 496/3/5 494/3/5 495/3/5
f 501/3/5 498/3/5 497/3/5
f 502/3/5 498/3/5 501/3/5
f 503/1/5 500/1/5 499/1/5
f 504/1/5 500/1/5 503/1/5
f 507/1/5 506/1/5 505/1/5
f 508/1/5 506/1/5 507/1/5
f 511/3/5 510/3/5 509/3/5
f 512/3/5 510/3/5 511/3/5
f 515/3/5 514/3/5 513/3/5
f 516/3/5 514/3/5 515/3/5
f 519/3/5 518/3/5 517/3/5
f 520/3/5 518/3/5 519/3/5
f 523/3/5 522/3/5 521/3/5
f 524/3/5 522/3/5 523/3/5
f 527/3/5 526/3/5 525/3/5
f 528/3/5 526/3/5 527/3/5
f 531/3/5 530/3/5 529/3/5
f 532/3/5 530/3/5 531/3/5
f 533/1/6 534/1/6 535/1/6
f 535/1/6 534/1/6 536/1/6
f 537/1/6 538/1/6 539/1/6
f 539/1/6 538/1/6 540/1/6
f 541/5/6 542/5/6 545/5/6
f 545/5/6 542/5/6 546/5/6
f 546/5/6 542/5/6 547/5/6
f 543/1/6 544/1/6 548/1/6
f 548/1/6 544/1/6 549/1/6
f 545/5/6 546/5/6 552/5/6
f 552/5/6 546/5/6 553/5/6
f 547/5/6 542/5/6 554/5/6
f 554/5/6 542/5/6 555/5/6
f 550/1/6 551/1/6 556/1/6
f 556/1/6 551/1/6 557/1/6
f 558/1/6 559/1/6 562/1/6
f 562/1/6 559/1/6 563/1/6
f 560/3/6 561/3/6 564/3/6
f 564/3/6 561/3/6 565/3/6
f 566/1/6 567/1/6 568/1/6
f 568/1/6 567/1/6 569/1/6
f 570/3/6 571/3/6 572/3/6
f 572/3/6 571/3/6 573/3/6
f 574/3/6 575/3/6 576/3/6
f 576/3/6 575/3/6 577/3/6
f 578/3/6 579/3/6 580/3/6
f 580/3/6 579/3/6 581/3/6
f 584/3/6 585/3/6 588/3/6
f 588/3/6 585/3/6 589/3/6
f 582/3/6 583/3/6 590/3/6
f 590/3/6 583/3/6 591/3/6
f 586/1/6 587/1/6 592/1/6
f 592/1/6 587/1/6 593/1/6
f 594/3/6 595/3/6 596/3/6
f 596/3/6 595/3/6 597/3/6
f 598/3/6 599/3/6 600/3/6
f 600/3/6 599/3/6 601/3/6
f 604/3/6 605/3/6 606/3/6
f 606/3/6 605/3/6 607/3/6
f 602/2/6 603/2/6 608/2/6
f 608/2/6 603/2/6 609/2/6
f 610/3/6 611/3/6 614/3/6
f 614/3/6 611/3/6 615/3/6
f 612/3/6 613/3/6 616/3/6
f 616/3/6 613/3/6 617/3/6
f 618/3/6 619/3/6 620/3/6
f 620/3/6 619/3/6 621/3/6
f 622/3/6 623/3/6 626/3/6
f 626/3/6 623/3/6 627/3/6
f 624/3/6 625/3/6 628/3/6
f 628/3/6 625/3/6 629/3/6
f 630/3/6 631/3/6 632/3/6
f 632/3/6 631/3/6 633/3/6
